<svg version="1.1" xmlns="http://www.w3.org/2000/svg" viewBox="0 0 1272.605152009745 489.6631395637858" width="2545.21030401949" height="979.3262791275716">
  <!-- svg-source:excalidraw -->
  
  <defs>
    <style class="style-fonts">
      @font-face {
        font-family: "Virgil";
        src: url("https://excalidraw.com/Virgil.woff2");
      }
      @font-face {
        font-family: "Cascadia";
        src: url("https://excalidraw.com/Cascadia.woff2");
      }
    </style>
  </defs>
  <rect x="0" y="0" width="1272.605152009745" height="489.6631395637858" fill="#ffffff"></rect><g stroke-linecap="round" transform="translate(190.93746072846264 124.15672341914956) rotate(0.07466459955065369 95.81538393632567 152.2014473814821)"><path d="M-1.84 -0.89 C38.23 -0.64, 78.74 0.74, 189.72 -1.02 M192.85 1.22 C192.42 119.58, 190.57 236.34, 192.84 305.15 M191.57 305.1 C149.71 304.05, 108.08 305.61, -0.38 304.3 M-1.44 305.3 C0.7 216.48, 0.87 129.42, 0.53 -0.38" stroke="#000000" stroke-width="1.5" fill="none" stroke-dasharray="1.5 7"></path></g><g stroke-linecap="round" transform="translate(905.164207983306 130.2857405969046) rotate(0 63.51953125 28.234375)"><path d="M1.26 -0.19 L126.01 1.83 L125.13 55.88 L-0.42 55.27" stroke="none" stroke-width="0" fill="#ced4da"></path><path d="M0.03 1.49 C40.12 -0.07, 82.09 -1.25, 125.78 1.65 M0.07 0.46 C30.86 0.31, 60.19 -0.29, 127.33 0.36 M127.16 -1.82 C127.74 22.19, 125.48 41.38, 125.98 57.93 M127.24 0.77 C128.1 15.42, 127.98 31.59, 126.07 56.09 M127.89 56.86 C81.27 57.84, 35.38 57.59, -0.74 55.72 M126.34 56.15 C87.75 55.73, 47.79 54.98, 0.68 57.32 M-0.44 58.14 C1.2 38.86, 0.03 21.35, 0.33 0.58 M-0.16 57.18 C-0.66 39.51, 0.6 22.21, 0.78 0.36" stroke="#000000" stroke-width="1" fill="none"></path></g><g transform="translate(916.3372861972548 148.6534652286274) rotate(0 53.75196075439453 10)"><text x="0" y="0" font-family="Virgil, Segoe UI Emoji" font-size="16px" fill="#343a40" text-anchor="start" style="white-space: pre;" direction="ltr" dominant-baseline="text-before-edge">Axelar router</text></g><g stroke-linecap="round" transform="translate(905.3292784051769 205.67968190094155) rotate(0 63.51953125 28.234375)"><path d="M1.49 -1.86 L125.26 0.87 L126.3 56.75 L0.95 54.98" stroke="none" stroke-width="0" fill="#ced4da"></path><path d="M-0.71 1.46 C42.4 -0.38, 84.85 -0.54, 127.87 0.97 M0.08 0.02 C48.27 0.05, 98.15 1.06, 127.49 0.48 M128.59 -1.21 C125.34 16.28, 127.07 32.71, 127.3 55.68 M127.75 -0.38 C126.02 12.21, 125.88 24.64, 126.7 55.54 M127.58 56.82 C96.99 57.98, 67.37 54.46, -0.45 55.21 M126.96 57.21 C100.78 57.24, 73.73 57.07, 0.94 57.35 M-0.39 56.37 C0.85 45.7, -1.48 33.29, -0.16 -1.14 M-0.46 56.9 C1.01 38.97, -0.14 20.61, -0.06 1" stroke="#000000" stroke-width="1" fill="none"></path></g><g transform="translate(924.3542300744896 224.43102568108446) rotate(0 44.81597137451172 10)"><text x="44.81597137451172" y="0" font-family="Virgil, Segoe UI Emoji" font-size="16px" fill="#343a40" text-anchor="middle" style="white-space: pre;" direction="ltr" dominant-baseline="text-before-edge">XCM router</text></g><g stroke-linecap="round" transform="translate(904.8488096551769 278.70311940094155) rotate(0 63.51953125 28.234375)"><path d="M0.48 -0.48 L125.62 0.97 L127.01 55.45 L-0.72 55.9" stroke="none" stroke-width="0" fill="#ced4da"></path><path d="M-1.66 -1.88 C36.51 1.78, 75.7 1.03, 127.51 -0.8 M-0.54 0.7 C26.99 -0.19, 54.25 0.09, 126.51 -0.47 M125.09 1.41 C127.86 13.19, 125.66 25.16, 126.99 54.72 M126.99 -0.72 C126.73 12.39, 126.6 23.33, 127.42 56.02 M125.95 58.08 C78.17 55.32, 26.36 57.74, -0.16 56.07 M126.52 56.83 C79.5 56.2, 34.77 56.22, -0.97 56.47 M-1.78 55.87 C-0.27 39.06, -1.3 21.36, -0.42 1.48 M-0.35 56.66 C-1.49 44.76, -0.3 33.05, -0.26 -0.93" stroke="#000000" stroke-width="1" fill="none"></path></g><g transform="translate(961.0674745020897 294.91964743108076) rotate(0 6.575981140136719 10)"><text x="6.575981140136719" y="0" font-family="Virgil, Segoe UI Emoji" font-size="16px" fill="#343a40" text-anchor="middle" style="white-space: pre;" direction="ltr" dominant-baseline="text-before-edge">...</text></g><g stroke-linecap="round"><g stroke-opacity="0.5" fill-opacity="0.5" transform="translate(829.1064204182281 170.84084051916426) rotate(0 27.956991025629407 -5.710528488466764)"><path d="M0.02 0.85 C9.55 -1.01, 47.85 -8.53, 57.34 -10.62 M-1.43 0.26 C7.93 -1.98, 46.8 -10.49, 56.38 -12.28" stroke="#000000" stroke-width="1" fill="none"></path></g></g><mask></mask><g stroke-linecap="round"><g stroke-opacity="0.5" fill-opacity="0.5" transform="translate(828.4037557075793 185.93176524638216) rotate(0 27.250357959718826 23.64683085619069)"><path d="M-0.9 -1.13 C8.45 6.8, 46.18 38.78, 55.4 47.04 M0.83 0.9 C10.15 9.05, 46.06 40.79, 54.84 48.42" stroke="#000000" stroke-width="1" fill="none"></path></g></g><mask></mask><g stroke-linecap="round"><g stroke-opacity="0.5" fill-opacity="0.5" transform="translate(886.8630396892846 310.5393150758711) rotate(0 -29.842620104250727 -52.99187163085736)"><path d="M-0.54 0.3 C-10.71 -17.05, -50.42 -87.03, -60.44 -104.6 M1.38 -0.59 C-8.96 -18.23, -50.63 -89.11, -61.07 -106.28" stroke="#000000" stroke-width="1" fill="none"></path></g></g><mask></mask><g stroke-linecap="round" transform="translate(213.14421162184345 155.1471256434872) rotate(0 73.89576533535988 28.234375)"><path d="M1.15 -1.41 L146.37 -1.53 L149.25 56.23 L1.99 55.26" stroke="none" stroke-width="0" fill="#228be6"></path><path d="M0.73 -1.07 C48.7 0.07, 101.05 0.46, 146.12 1.26 M-0.74 -0.52 C39.36 0.85, 81.04 0.34, 148.73 0.99 M149.33 -0.3 C149.57 12.94, 146.31 25.91, 147.21 55.48 M147.29 0.77 C147.48 10.82, 146.96 23.56, 147.39 56.72 M148.56 55.56 C100.42 55.32, 51.34 58.37, 0.31 56.2 M148.6 56 C97.22 55.49, 46.55 56.44, -0.21 57.36 M0.94 57.21 C-0.97 42.67, -0.56 30.78, 1.16 -1.73 M0.67 55.84 C0.42 34.44, -0.56 11.22, -0.44 -0.24" stroke="#000000" stroke-width="1" fill="none"></path></g><g transform="translate(234.57281507227248 164.2598992259015) rotate(0 52.03997039794922 20)"><text x="52.03997039794922" y="0" font-family="Virgil, Segoe UI Emoji" font-size="16px" fill="#ffffff" text-anchor="middle" style="white-space: pre;" direction="ltr" dominant-baseline="text-before-edge">Liquidity Pool</text><text x="52.03997039794922" y="20" font-family="Virgil, Segoe UI Emoji" font-size="16px" fill="#ffffff" text-anchor="middle" style="white-space: pre;" direction="ltr" dominant-baseline="text-before-edge">(ERC-4626)</text></g><g stroke-linecap="round" transform="translate(214.62650897380524 251.25490846982387) rotate(0 73.8957653353599 28.234375)"><path d="M1.15 -1.41 L146.37 -1.53 L149.25 56.23 L1.99 55.26" stroke="none" stroke-width="0" fill="#ced4da"></path><path d="M0.73 -1.07 C48.7 0.07, 101.05 0.46, 146.12 1.26 M-0.74 -0.52 C39.36 0.85, 81.04 0.34, 148.73 0.99 M149.33 -0.3 C149.57 12.94, 146.31 25.91, 147.21 55.48 M147.29 0.77 C147.48 10.82, 146.96 23.56, 147.39 56.72 M148.56 55.56 C100.42 55.32, 51.34 58.37, 0.31 56.2 M148.6 56 C97.22 55.49, 46.55 56.44, -0.21 57.36 M0.94 57.21 C-0.97 42.67, -0.56 30.78, 1.16 -1.73 M0.67 55.84 C0.42 34.44, -0.56 11.22, -0.44 -0.24" stroke="#000000" stroke-width="1" fill="none"></path></g><g transform="translate(232.04645476952868 259.83079429485844) rotate(0 58.15998077392578 20)"><text x="58.15998077392578" y="0" font-family="Virgil, Segoe UI Emoji" font-size="16px" fill="#000000" text-anchor="middle" style="white-space: pre;" direction="ltr" dominant-baseline="text-before-edge">Tranche Token</text><text x="58.15998077392578" y="20" font-family="Virgil, Segoe UI Emoji" font-size="16px" fill="#000000" text-anchor="middle" style="white-space: pre;" direction="ltr" dominant-baseline="text-before-edge">(ERC-20)</text></g><g stroke-linecap="round"><g transform="translate(290.0074265451093 218.3204530256748) rotate(0 -0.24764553967365543 12.651521432980417)"><path d="M-1.1 -1.03 C-1.46 3.17, -1.56 21.97, -1.17 26.33 M0.52 1.05 C0.43 5.4, 0.83 20.32, 0.92 24.49" stroke="#666" stroke-width="1" fill="none"></path></g></g><mask></mask><g transform="translate(247.580890721343 60.65901644875538) rotate(0.07466459955065369 43.215972900390625 20)"><text x="43.215972900390625" y="0" font-family="Virgil, Segoe UI Emoji" font-size="16px" fill="#000000" text-anchor="middle" style="white-space: pre;" direction="ltr" dominant-baseline="text-before-edge">Investment</text><text x="43.215972900390625" y="20" font-family="Virgil, Segoe UI Emoji" font-size="16px" fill="#000000" text-anchor="middle" style="white-space: pre;" direction="ltr" dominant-baseline="text-before-edge">interface</text></g><g stroke-linecap="round" transform="translate(455.6568870166113 156.54181065510022) rotate(0 63.51953125 28.234375)"><path d="M-1.66 1.1 L127.7 1.51 L128.05 57.15 L-1.72 56.86" stroke="none" stroke-width="0" fill="#82c91e"></path><path d="M0.73 -1.59 C50.48 0.09, 97.67 1.14, 128.14 1.88 M0.88 -0.93 C37.41 0.47, 74.14 0.73, 127.89 0.67 M127.07 0.78 C126.72 24.16, 127.29 43.37, 125.95 55.76 M126.16 0.68 C127.41 20.05, 126.68 39.23, 126.44 55.91 M128.46 56.47 C85.51 56.08, 44.69 57.28, 0.9 55.07 M126.66 55.63 C92.32 55.29, 56.41 55.73, -0.12 56.1 M-0.36 56.38 C-0.87 40.51, -1.12 23.84, -0.03 -1.23 M-0.07 56.06 C0.77 43.54, 0.33 33.21, 0.48 0.55" stroke="#000000" stroke-width="1" fill="none"></path></g><g transform="translate(472.87095708767475 172.4022335384496) rotate(0 47.299957275390625 12.5)"><text x="47.299957275390625" y="0" font-family="Virgil, Segoe UI Emoji" font-size="20px" fill="#ffffff" text-anchor="middle" style="white-space: pre;" direction="ltr" dominant-baseline="text-before-edge">Connector</text></g><g stroke-linecap="round" transform="translate(217.1165257781769 348.11478492742623) rotate(0 73.89576533535988 28.234375)"><path d="M1.15 -1.41 L146.37 -1.53 L149.25 56.23 L1.99 55.26" stroke="none" stroke-width="0" fill="#ced4da"></path><path d="M0.73 -1.07 C48.7 0.07, 101.05 0.46, 146.12 1.26 M-0.74 -0.52 C39.36 0.85, 81.04 0.34, 148.73 0.99 M149.33 -0.3 C149.57 12.94, 146.31 25.91, 147.21 55.48 M147.29 0.77 C147.48 10.82, 146.96 23.56, 147.39 56.72 M148.56 55.56 C100.42 55.32, 51.34 58.37, 0.31 56.2 M148.6 56 C97.22 55.49, 46.55 56.44, -0.21 57.36 M0.94 57.21 C-0.97 42.67, -0.56 30.78, 1.16 -1.73 M0.67 55.84 C0.42 34.44, -0.56 11.22, -0.44 -0.24" stroke="#000000" stroke-width="1" fill="none"></path></g><g transform="translate(251.19660918348114 366.273569015425) rotate(0 40.16796875 10)"><text x="40.16796875" y="0" font-family="Virgil, Segoe UI Emoji" font-size="16px" fill="#000000" text-anchor="middle" style="white-space: pre;" direction="ltr" dominant-baseline="text-before-edge">Memberlist</text></g><g stroke-linecap="round"><g transform="translate(290.32104728797054 314.177523584909) rotate(0 -0.24764553967365543 12.651521432980417)"><path d="M-1.1 -1.03 C-1.46 3.17, -1.56 21.97, -1.17 26.33 M0.52 1.05 C0.43 5.4, 0.83 20.32, 0.92 24.49" stroke="#666" stroke-width="1" fill="none"></path></g></g><mask></mask><g stroke-linecap="round" transform="translate(458.0608584827507 270.55108521306124) rotate(0 63.51953125 28.234375)"><path d="M1.26 -0.19 L126.01 1.83 L125.13 55.88 L-0.42 55.27" stroke="none" stroke-width="0" fill="#ced4da"></path><path d="M0.03 1.49 C40.12 -0.07, 82.09 -1.25, 125.78 1.65 M0.07 0.46 C30.86 0.31, 60.19 -0.29, 127.33 0.36 M127.16 -1.82 C127.74 22.19, 125.48 41.38, 125.98 57.93 M127.24 0.77 C128.1 15.42, 127.98 31.59, 126.07 56.09 M127.89 56.86 C81.27 57.84, 35.38 57.59, -0.74 55.72 M126.34 56.15 C87.75 55.73, 47.79 54.98, 0.68 57.32 M-0.44 58.14 C1.2 38.86, 0.03 21.35, 0.33 0.58 M-0.16 57.18 C-0.66 39.51, 0.6 22.21, 0.78 0.36" stroke="#000000" stroke-width="1" fill="none"></path></g><g transform="translate(495.7683387286167 289.29404381291215) rotate(0 26.49597930908203 10)"><text x="0" y="0" font-family="Virgil, Segoe UI Emoji" font-size="16px" fill="#343a40" text-anchor="start" style="white-space: pre;" direction="ltr" dominant-baseline="text-before-edge">Escrow</text></g><g stroke-linecap="round" transform="translate(661.0766357589963 155.5975405594811) rotate(0 74.39123925698294 28.234375)"><path d="M-0.4 -1.86 L149.11 0.31 L149.29 56.52 L-1.1 58.14" stroke="none" stroke-width="0" fill="#fd7e14"></path><path d="M0.8 -0.34 C53.62 -2.31, 110.08 -1.37, 147.79 -0.83 M-0.3 -0.76 C56 -0.45, 113.8 -0.85, 148.7 -0.07 M150.02 -1.95 C150.89 22.69, 147.16 41.68, 149.78 56.68 M148.6 -0.32 C148.92 21.45, 149.87 40.86, 147.94 56.16 M146.83 56.81 C91.81 57.37, 37.53 58.12, -1.98 56.42 M148.61 57.17 C106.11 56.19, 63.5 56.26, 0.28 56.25 M1.17 55.37 C-0.49 41.69, 1 28.5, -0.73 1.21 M-0.73 56.43 C-0.72 35.38, 0.55 14.79, -0.06 0.37" stroke="#000000" stroke-width="1" fill="none"></path></g><g transform="translate(691.8403063113799 171.77614697176773) rotate(0 43.129974365234375 12.5)"><text x="43.129974365234375" y="0" font-family="Virgil, Segoe UI Emoji" font-size="20px" fill="#ffffff" text-anchor="middle" style="white-space: pre;" direction="ltr" dominant-baseline="text-before-edge">Gateway</text></g><g stroke-linecap="round"><g stroke-opacity="0.5" fill-opacity="0.5" transform="translate(600.8696762951236 183.41862444404887) rotate(0 20.873442226640293 -0.14467170894153014)"><path d="M-0.9 -1.13 C6.32 -1.22, 35.55 -1.3, 42.64 -1.06 M0.83 0.9 C8.02 1.03, 35.43 0.71, 42.08 0.32" stroke="#000000" stroke-width="1" fill="none"></path></g></g><mask></mask><g stroke-linecap="round"><g stroke-opacity="0.5" fill-opacity="0.5" transform="translate(519.2088685499659 255.66971883460877) rotate(0 0.07888287202365518 -15.951312908883722)"><path d="M-0.9 -1.13 C-0.61 -6.51, 0.89 -27.75, 1.05 -32.8 M0.83 0.9 C1.09 -4.26, 0.77 -25.74, 0.49 -31.42" stroke="#000000" stroke-width="1" fill="none"></path></g></g><mask></mask><g stroke-linecap="round"><g stroke-opacity="0.5" fill-opacity="0.5" transform="translate(405.8222349720854 184.24743793408993) rotate(0 16.778856178824668 0.058674398300297526)"><path d="M-0.9 -1.13 C4.96 -1.08, 28.73 -0.63, 34.45 -0.25 M0.83 0.9 C6.66 1.16, 28.61 1.39, 33.89 1.13" stroke="#000000" stroke-width="1" fill="none"></path></g></g><mask></mask><g stroke-linecap="round" transform="translate(673.5028844910817 269.62746931659484) rotate(0 63.51953125000003 28.234375)"><path d="M1.26 -0.19 L126.01 1.83 L125.13 55.88 L-0.42 55.27" stroke="none" stroke-width="0" fill="#ced4da"></path><path d="M0.03 1.49 C40.12 -0.07, 82.09 -1.25, 125.78 1.65 M0.07 0.46 C30.86 0.31, 60.19 -0.29, 127.33 0.36 M127.16 -1.82 C127.74 22.19, 125.48 41.38, 125.98 57.93 M127.24 0.77 C128.1 15.42, 127.98 31.59, 126.07 56.09 M127.89 56.86 C81.27 57.84, 35.38 57.59, -0.74 55.72 M126.34 56.15 C87.75 55.73, 47.79 54.98, 0.68 57.32 M-0.44 58.14 C1.2 38.86, 0.03 21.35, 0.33 0.58 M-0.16 57.18 C-0.66 39.51, 0.6 22.21, 0.78 0.36" stroke="#000000" stroke-width="1" fill="none"></path></g><g transform="translate(700.3203327608338 287.82200903995073) rotate(0 37.25597381591797 10)"><text x="0" y="0" font-family="Virgil, Segoe UI Emoji" font-size="16px" fill="#343a40" text-anchor="start" style="white-space: pre;" direction="ltr" dominant-baseline="text-before-edge">Messages</text></g><g stroke-linecap="round"><g stroke-opacity="0.5" fill-opacity="0.5" transform="translate(737.636272502525 258.0696037987058) rotate(0 0.07888287202365518 -15.951312908883722)"><path d="M-0.9 -1.13 C-0.61 -6.51, 0.89 -27.75, 1.05 -32.8 M0.83 0.9 C1.09 -4.26, 0.77 -25.74, 0.49 -31.42" stroke="#000000" stroke-width="1" fill="none"></path></g></g><mask></mask><g transform="translate(453.6288885661951 74.01799359288316) rotate(0.07466459955065369 65.80796813964844 10)"><text x="65.80796813964844" y="0" font-family="Virgil, Segoe UI Emoji" font-size="16px" fill="#000000" text-anchor="middle" style="white-space: pre;" direction="ltr" dominant-baseline="text-before-edge">Pool management</text></g><g transform="translate(673.7531942797483 67.15763412990808) rotate(0.07466459955065369 63.471954345703125 10)"><text x="63.471954345703125" y="0" font-family="Virgil, Segoe UI Emoji" font-size="16px" fill="#000000" text-anchor="middle" style="white-space: pre;" direction="ltr" dominant-baseline="text-before-edge">Message parsing</text></g><g transform="translate(909.6750197070817 56.99085122906902) rotate(0.07466459955065369 63.71995544433594 20)"><text x="63.71995544433594" y="0" font-family="Virgil, Segoe UI Emoji" font-size="16px" fill="#000000" text-anchor="middle" style="white-space: pre;" direction="ltr" dominant-baseline="text-before-edge">Routing to/from</text><text x="63.71995544433594" y="20" font-family="Virgil, Segoe UI Emoji" font-size="16px" fill="#000000" text-anchor="middle" style="white-space: pre;" direction="ltr" dominant-baseline="text-before-edge">Centrifuge Chain</text></g><g stroke-linecap="round" transform="translate(10 10) rotate(0 626.3025760048725 234.8315697818929)"><path d="M32 0 M32 0 C474.32 -2.28, 917.53 -1.63, 1220.61 0 M32 0 C338.59 -0.15, 644.95 -0.06, 1220.61 0 M1220.61 0 C1239.97 -1.92, 1252.64 12.6, 1252.61 32 M1220.61 0 C1240.32 -1.13, 1254.32 9.2, 1252.61 32 M1252.61 32 C1250.84 183.88, 1251.13 338.68, 1252.61 437.66 M1252.61 32 C1251.24 167.49, 1250.67 304.09, 1252.61 437.66 M1252.61 437.66 C1253.63 458.27, 1243.84 469.38, 1220.61 469.66 M1252.61 437.66 C1253.37 459.58, 1242.72 469.39, 1220.61 469.66 M1220.61 469.66 C913.3 468.32, 605.34 469.31, 32 469.66 M1220.61 469.66 C752.7 467.27, 284.24 467.55, 32 469.66 M32 469.66 C9.07 468.13, 0.73 460.53, 0 437.66 M32 469.66 C11.3 470.29, -0.27 457.2, 0 437.66 M0 437.66 C-1.15 296.33, -0.84 156.29, 0 32 M0 437.66 C-0.95 277.14, -0.94 117.32, 0 32 M0 32 C0.74 10.34, 10.44 -1.69, 32 0 M0 32 C0.57 10.29, 11 1.81, 32 0" stroke="#ffffff" stroke-width="1" fill="none"></path></g></svg>